<?xml version="1.0"?>
<svg xmlns:rdf="http://www.w3.org/1999/02/22-rdf-syntax-ns#" xmlns="http://www.w3.org/2000/svg" xmlns:cc="http://creativecommons.org/ns#" xmlns:dc="http://purl.org/dc/elements/1.1/" xmlns:svg="http://www.w3.org/2000/svg" id="svg2" viewBox="0 0 224.91 388.74" version="1.1">
  <g id="layer1" transform="translate(-243.73 -277.79)">
    <path id="path2996" d="m380.88 665.66c-7.4098-2.0489-13.925-6.4596-22.263-15.072-9.3226-9.6293-18.531-23.15-22.288-32.724l-2.7178-6.9272 2.8774-6.0202c3.9667-8.2993 4.8781-8.8202 6.4094-3.6631 1.8048 6.0783 8.2843 19.236 12.945 26.287 5.0777 7.6818 15.503 19.092 19.182 20.994 3.4094 1.763 8.8318 1.8516 11.022 0.17994 5.3051-4.0485 6.5246-15.74 2.5263-24.218-4.3423-9.208-10.25-12.444-15.101-8.2721-2.4122 2.0749-2.8249 3.2813-3.2751 9.5731-0.2833 3.9595-0.82043 7.199-1.1936 7.199-1.2924 0-5.8416-5.5178-7.8324-9.5-1.9286-3.8577-5.2203-13.841-5.2203-15.832 0-0.5327 1.3528 0.89898 3.0063 3.1815 1.6534 2.2825 3.791 4.157 4.75 4.1655 0.95905 0.009 3.3482-1.8496 5.3092-4.1291 3.1359-3.6452 4.1881-4.2044 8.7331-4.6411 10.334-0.99294 19.411 5.9977 23.704 18.255 2.304 6.5785 3.1849 23.865 1.4834 29.107-3.4079 10.5-11.564 14.958-22.057 12.057zm-62.153-45.924c-7.9329-20.12-11.038-34.341-10.97-50.24 0.0504-11.688 2.277-22.824 6.0371-30.195 3.7772-7.404 11.406-16.383 17.791-20.939 7.4334-5.3044 18.808-9.6197 24.178-9.1731l3.6867 0.30659 0.65426 6.6145c1.0471 10.586 4.7535 15.7 10.36 14.293 7.8464-1.9693 6.5738-18.266-2.1481-27.508l-2.4545-2.6008 6.2941-1.5587 6.2941-1.5587 2.8432 2.6595c1.5638 1.4627 4.028 4.9095 5.476 7.6595 2.2364 4.2472 2.6364 6.2798 2.6568 13.5 0.029 10.284-1.897 14.928-7.8134 18.839-3.3451 2.2114-5.1471 2.6603-10.671 2.6582-5.5831-0.002-7.3144-0.44504-10.827-2.7693-3.7688-2.4941-9.4007-8.9858-10.448-12.043-0.71306-2.0818-9.0682 2.7759-16.119 9.3716-9.5286 8.9136-14.598 20.688-14.598 33.904 0 8.0322 4.1143 27.096 5.8276 27.002 0.36985-0.0202 3.3724-3.9443 6.6724-8.7201s8.7838-12.16 12.186-16.41l6.1861-7.7263-2.0087-2.5536c-1.5274-1.9417-2.9238-2.5536-5.8277-2.5536-4.3491 0-4.6039 0.50115-5.7063 11.225-0.52973 5.1529-1.3766 7.3167-4.7344 12.097-3.7622 5.3556-4.1416 5.6356-4.7425 3.5-2.5326-8.9998 1.2131-34.194 5.8908-39.622 4.2467-4.9278 23.701 2.2902 33.177 12.309l5.2707 5.573-6.3063 4.2091c-17.358 11.586-32.638 32.06-39.35 52.729-0.97884 3.0141-2.0799 5.8131-2.4468 6.2202-0.36691 0.40702-2.3065-3.418-4.3103-8.5zm-28.083-76.385c-2.633-5.1269-6.4919-18.724-7.744-27.287-0.79097-5.4095-1.0202-13.74-0.64586-23.476 0.66145-17.205 3.1987-29.942 9.1832-46.099 4.0516-10.939 13.894-30.503 18.157-36.092l2.698-3.5373 3.1675 8.8186c8.4356 23.486 22.797 43.842 41.343 58.599l6.4812 5.1573-7.2387 3.2832-7.2386 3.2832-7.3949-5.5656c-10.229-7.6984-21.023-18.022-26.962-25.786-2.75-3.5955-5.501-6.5631-6.1134-6.5947-1.5988-0.0826-5.8957 10.071-8.3404 19.709-1.9886 7.8394-2.9518 21.662-1.6033 23.01 0.34417 0.34417 4.9172-3.7502 10.162-9.0986 5.2452-5.3484 10.654-10.456 12.02-11.351 2.4035-1.5748 2.6013-1.5154 6.1791 1.8575 2.0329 1.9164 4.8875 4.3751 6.3437 5.4637l2.6476 1.9792-7.4406 5.756c-13.987 10.82-25.096 27.706-32.227 48.986-3.9607 11.819-3.9704 11.836-5.4339 8.9859zm25.306-25.845c0-1.9475 3.503-6.695 8.2591-11.193 8.9277-8.4435 15.752-12.293 47.221-26.635 9.7118-4.4262 20.388-14.918 23.374-22.969 1.1803-3.1831 2.146-7.6158 2.146-9.8504v-4.0628l-5.5631 5.0844c-7.378 6.7431-18.699 14.088-27.889 18.096l-7.4644 3.2545-3.987-3.1578c-2.1929-1.7368-5.18-4.5756-6.6382-6.3085l-2.6512-3.1508 4.5345-2.1884c8.6917-4.1948 11.491-6.4498 13.719-11.053 1.7704-3.6571 2.0992-5.683 1.6773-10.335-0.28859-3.1825-1.3383-7.0811-2.3328-8.6636-3.5288-5.6152-7.5506-10.325-11.464-13.424l-3.9655-3.1407-2.4607 5.3748c-1.3534 2.9562-2.8956 8.4462-3.4273 12.2-0.53162 3.7539-1.1881 7.0468-1.4589 7.3176-1.0298 1.0298-3.6284-10.321-3.6284-15.849 0-6.4338 2.7255-14.79 6.2542-19.176l2.2689-2.8198 7.4885 3.8198c9.8372 5.0179 20.558 15.532 24.017 23.553 1.3595 3.1531 2.7698 5.7406 3.1339 5.75 1.1358 0.0293 2.0451-7.797 1.3701-11.792-1.1031-6.529-6.0569-13.845-12.673-18.715-6.1898-4.5566-7.8597-4.8576-7.8597-1.4166 0 2.7402-1.0532 2.4432-5.827-1.643-4.8872-4.1832-8.6776-10.365-9.6065-15.666-0.36139-2.0625-1.026-3.75-1.4769-3.75-1.9699 0-5.9917 4.278-6.5922 7.0122-0.41432 1.8864-1.2822 2.9878-2.3543 2.9878-2.7337 0-6.2448 2.9993-7.7621 6.6307-0.77429 1.8531-1.7547 3.3693-2.1788 3.3693-1.7358 0-4.7068-6.855-5.2008-12l-0.52814-5.5-1.867 3.7847c-2.3122 4.6872-7.5032 9.0683-12.528 10.574-7.2383 2.1686-7.7064 1.521-2.739-3.7896 5.2288-5.59 11.93-15.633 16.511-24.746 3.6356-7.2318 5.1479-8.5904 5.1557-4.6319 0.008 4.0547 1.7985 9.9015 3.4524 11.274 1.179 0.97847 1.5231 0.52425 2.0016-2.6418 1.8124-11.994 4.9096-20.043 10.074-26.181 1.4544-1.7284 2.3326-3.1426 1.9516-3.1426-0.38097 0-3.721 1.5914-7.4223 3.5363-13.987 7.3501-28.915 21.594-40.136 38.297-2.7097 4.0336-4.9267 6.7245-4.9267 5.9799 0-2.8253 4.1672-16.226 6.9634-22.393 1.6028-3.5348 5.018-9.5627 7.5894-13.395 4.7941-7.1455 18.042-20.568 24.699-25.025 7.0207-4.7003 4.7066-4.7913-9.0252-0.35486-13.895 4.4892-31.689 14.331-29.589 16.366 0.47429 0.45947 2.2124 0.98252 3.8624 1.1623 2.9574 0.32231 2.9313 0.36076-1.8425 2.711-6.7481 3.3221-15.211 11.898-18.214 18.459-5.0557 11.043-4.3322 23.017 2.6682 44.157 5.2763 15.933 7.2429 28.896 6.5235 43-0.83553 16.381-4.1163 25.877-11.296 32.697-2.7032 2.5678-10.136 6.3394-10.93 5.5458-0.2059-0.2059 1.1546-3.2698 3.0234-6.8086 5.4138-10.252 6.8907-16.768 6.3492-28.013-0.45649-9.48-0.62192-10.035-7.0189-23.565-14.148-29.923-18.889-53.412-14.28-70.752 3.5409-13.321 14.966-30.173 26.214-38.666 9.7663-7.3736 23.643-12.914 32.447-12.954 7.8705-0.0359 7.2833-3.8473-0.92458-6.0008l-4.7198-1.2384 5.3569-2.4874c6.0981-2.8316 26.323-7.2319 33.311-7.2476 5.5196-0.0124 7.8318-0.75122 7.8318-2.5025 0-1.5197-4.2855-4.508-6.4648-4.508-0.84435 0-1.5352-0.45-1.5352-1 0-1.787 8.4538-1.058 16.84 1.4522 9.2642 2.7729 18.809 4.1037 22.603 3.1514 3.7607-0.94388 3.2444-4.0477-1.193-7.1712l-3.75-2.6397 5.7742 0.6152c12.948 1.3796 34.354 9.8333 48.162 19.021 7.8769 5.2411 22.051 18.875 24.627 23.688 1.2442 2.3248 1.2396 2.327-1.1567 0.56915-5.4165-3.9736-21.089-10.768-29.466-12.774-10.896-2.6096-24.327-2.2216-34.44 0.99503-7.9344 2.5238-7.6926 2.5162-5.5746 0.17578 0.95444-1.0546 1.5867-2.9671 1.405-4.25-0.27198-1.9203-1.0204-2.3889-4.235-2.652-5.2692-0.43127-7.8698 0.33822-11.518 3.4082-3.3558 2.8237-3.9185 5.4682-1.5771 7.4114 3.5131 2.9156 0.91997 10.429-6.3519 18.404-2.2164 2.4308-2.3221 2.7747-0.64813 2.1094 4.0616-1.6142 12.018-3.5137 14.718-3.5137 1.5301 0 2.7821-0.37156 2.7821-0.82569 0-1.3185-4.4893-5.1714-6.0644-5.2047-1.0359-0.0219-0.93878-0.31953 0.34885-1.0689 1.3078-0.76115 3.1774-0.56201 7 0.74561 3.8715 1.3244 8.0056 1.752 16.042 1.6594 5.9544-0.0686 11.053-0.35192 11.331-0.62955 0.68358-0.68359-1.4323-4.6455-4.0322-7.5503l-2.125-2.3742 2.5 0.72805c4.4658 1.3005 11.391 5.7927 14.822 9.6148 6.9055 7.6923 13.842 7.5886 9.394-0.14033-2.0729-3.6018-2.1171-3.9522-0.49586-3.9322 5.8872 0.0726 16.449 8.9169 17.756 14.869 0.32089 1.461 2.0538 3.8296 3.8508 5.2635 1.7971 1.4339 4.7425 5.3748 6.5455 8.7575s4.1515 6.9641 5.219 7.9586c1.8282 1.7033 1.85 2.0256 0.37551 5.5546-2.035 4.8703-0.5343 10.269 3.1086 11.183 3.4898 0.87587 5.2017-0.0899 6.7708-3.8198l1.3834-3.2885 0.7253 4.5938c1.3508 8.5551-3.2276 17.931-10.973 22.469-4.9938 2.9266-6.4823 3.055-6.4823 0.55921 0-1.0326-0.69407-2.4536-1.5424-3.1576-1.0701-0.88808-1.2232-1.5993-0.5-2.3224 0.57331-0.57331 1.0424-2.309 1.0424-3.8571 0-5.9923-11.422-9.1579-15.889-4.4035-1.7535 1.8665-2.1698 3.3269-1.9243 6.75 0.28242 3.938 0.63333 4.4716 3.5629 5.4186 2.4608 0.7954 2.9687 1.3313 2.0924 2.2076-1.3683 1.3683 0.51528 4.242 2.7804 4.242 3.5287 0-0.51407 5.4791-5.1786 7.0186-4.6538 1.5359-8.2995 0.53865-11.751-3.2143-2.5025-2.7213-3.2616-2.9928-7-2.503-4.1723 0.54661-4.1794 0.54208-1.4302-0.91468 2.1591-1.144 2.7146-2.0986 2.5417-4.3675-0.16059-2.1076 0.50131-3.4719 2.4147-4.9769 3.3534-2.6378 5.1722-7.8823 3.8968-11.237-1.9938-5.2442-12.239-10.774-20.048-10.821-1.4127-0.008-3.1904-0.40916-3.9504-0.89053-2.7173-1.721 8.2149-6.9645 14.699-7.0503 2.9632-0.0392 3.2464-0.28411 2.6528-2.2939-1.2084-4.0908-5.2829-9.4712-8.8351-11.666-4.8241-2.9815-16.933-5.4008-23.058-4.6069-5.9506 0.77136-8.4049 1.9162-11.2 5.2241-2.0638 2.4428-2.1951 2.4648-4.7427 0.79556-5.3863-3.5292-10.001 0.26307-9.8817 8.1215 0.0754 4.9868 1.3085 7.5422 6.2566 12.966 2.0492 2.2463 4.2783 5.7585 4.9537 7.8049 1.0165 3.0801 2.1155 4.1166 6.3823 6.0196 16.491 7.3551 40.985 32.088 47.031 47.49 3.7981 9.6763 2.7052 25.765-2.3844 35.101-1.7993 3.3004-1.9144 3.3574-2.0176 1-0.16988-3.8818-0.95232-9.3112-1.4074-9.7664-0.22603-0.22602-2.5669 3.3414-5.2019 7.9277-6.6919 11.647-12.868 17.52-24.399 23.2-8.117 3.9981-11.947 5.1475-26.875 8.0659-18.971 3.7088-28.942 7.6669-38.765 15.388-5.6903 4.473-7.3264 5.5213-7.3264 4.6943zm129.99-154.21c0-4.8932-2.7538-9.3144-5.8015-9.3144-2.0882 0-1.0638 9.3864 1.3107 12.01 3.0525 3.373 4.4908 2.5096 4.4908-2.6957z"/>
  </g>
  <metadata>
    <rdf:RDF>
      <cc:Work>
        <dc:format>image/svg+xml</dc:format>
        <dc:type rdf:resource="http://purl.org/dc/dcmitype/StillImage"/>
        <cc:license rdf:resource="http://creativecommons.org/licenses/publicdomain/"/>
        <dc:publisher>
          <cc:Agent rdf:about="http://openclipart.org/">
            <dc:title>Openclipart</dc:title>
          </cc:Agent>
        </dc:publisher>
        <dc:title>Dragon</dc:title>
        <dc:date>2013-08-02T08:19:37</dc:date>
        <dc:description>A Dragon in Tribal-Style</dc:description>
        <dc:source>http://openclipart.org/detail/181430/dragon-by-skeeter1985-181430</dc:source>
        <dc:creator>
          <cc:Agent>
            <dc:title>Skeeter1985</dc:title>
          </cc:Agent>
        </dc:creator>
        <dc:subject>
          <rdf:Bag>
            <rdf:li>Dragon</rdf:li>
            <rdf:li>Fantasy</rdf:li>
            <rdf:li>Tattoo</rdf:li>
            <rdf:li>Tribal</rdf:li>
          </rdf:Bag>
        </dc:subject>
      </cc:Work>
      <cc:License rdf:about="http://creativecommons.org/licenses/publicdomain/">
        <cc:permits rdf:resource="http://creativecommons.org/ns#Reproduction"/>
        <cc:permits rdf:resource="http://creativecommons.org/ns#Distribution"/>
        <cc:permits rdf:resource="http://creativecommons.org/ns#DerivativeWorks"/>
      </cc:License>
    </rdf:RDF>
  </metadata>
</svg>
